<svg xmlns="http://www.w3.org/2000/svg" width="20.844" height="14.656" viewBox="0 0 20.844 14.656">
  <path id="Icon_awesome-youtube" data-name="Icon awesome-youtube" d="M21.458,6.793a2.619,2.619,0,0,0-1.843-1.855C17.99,4.5,11.472,4.5,11.472,4.5s-6.518,0-8.143.438A2.619,2.619,0,0,0,1.486,6.793a27.474,27.474,0,0,0-.436,5.05,27.474,27.474,0,0,0,.436,5.05,2.58,2.58,0,0,0,1.843,1.825c1.626.438,8.143.438,8.143.438s6.518,0,8.143-.438a2.58,2.58,0,0,0,1.843-1.825,27.474,27.474,0,0,0,.436-5.05,27.474,27.474,0,0,0-.436-5.05ZM9.34,14.942v-6.2l5.448,3.1-5.448,3.1Z" transform="translate(-1.05 -4.5)" fill="#da001a"/>
</svg>
